Coordinates
version=1
nRows=8
nColumns=40
inDegrees=yes

Units are S.I. units (second, meters, Newtons, ...)
Angles are in degrees.

endheader
time	pelvis_tilt	pelvis_list	pelvis_rotation	pelvis_tx	pelvis_ty	pelvis_tz	hip_flexion_r	hip_adduction_r	hip_rotation_r	knee_angle_r	knee_angle_r_beta	ankle_angle_r	subtalar_angle_r	mtp_angle_r	hip_flexion_l	hip_adduction_l	hip_rotation_l	knee_angle_l	knee_angle_l_beta	ankle_angle_l	subtalar_angle_l	mtp_angle_l	lumbar_extension	lumbar_bending	lumbar_rotation	arm_flex_r	arm_add_r	arm_rot_r	elbow_flex_r	pro_sup_r	wrist_flex_r	wrist_dev_r	arm_flex_l	arm_add_l	arm_rot_l	elbow_flex_l	pro_sup_l	wrist_flex_l	wrist_dev_l
     48.76714286	     -4.97715211	     -4.00698660	      5.51848567	      0.97485969	      0.93163281	      0.47476491	      5.17103477	      5.20704590	    -17.92911539	      8.21823754	      8.21823754	     10.50566534	      1.15917042	     -5.22228522	     34.97078906	     -7.64486825	      0.47852582	     34.27529749	     34.27529749	     10.62045752	    -16.03428245	     11.84913726	     -8.64575905	      5.34197880	      4.19833830	     38.11321157	    -17.85323929	     -8.16994278	     76.02810861	     45.02562758	      0.00000000	      0.00000000	     -2.52311578	     -5.79269093	      4.62298648	     25.16096071	     45.42341520	      0.00000000	      0.00000000
     48.77928571	     -5.06996244	     -4.01434477	      5.75433969	      0.97407248	      0.93092834	      0.47443897	      4.67751067	      5.27774981	    -18.01845397	      7.96251242	      7.96251242	     10.77048876	      1.21286046	     -5.31370032	     35.01516976	     -7.26728162	      0.47413405	     30.82719445	     30.82719445	     10.53598834	    -14.50256910	     12.00947238	     -8.58193799	      5.34950982	      4.23160194	     39.81663965	    -17.97947412	     -8.34181009	     77.31049178	     45.00026659	      0.00000000	      0.00000000	     -3.53943930	     -5.90125181	      4.67074527	     24.76787386	     45.39717618	      0.00000000	      0.00000000
     48.79142857	     -5.10498924	     -4.12841364	      6.04640915	      0.97349692	      0.93016240	      0.47398751	      4.06285897	      5.47434748	    -18.28802568	      7.60113078	      7.60113078	     11.04785935	      1.51818458	     -5.41757660	     35.01579717	     -6.99871144	      0.45108827	     27.62269608	     27.62269608	     10.40988093	    -12.79447391	     11.92119311	     -8.55320382	      5.47570711	      4.12481767	     41.36440188	    -17.99149176	     -8.45185193	     78.98348668	     44.96090474	      0.00000000	      0.00000000	     -4.54873325	     -5.95619273	      4.73193313	     24.50550946	     45.36769358	      0.00000000	      0.00000000
     48.80357143	     -5.23556966	     -4.31601488	      6.33561089	      0.97288884	      0.92916136	      0.47343681	      3.61535198	      5.72112464	    -18.52691309	      7.33727252	      7.33727252	     11.33485060	      1.70469174	     -5.51927117	     35.17841957	     -6.78828176	      0.37187208	     24.77238755	     24.77238755	     10.23245554	    -11.15841982	     12.06790968	     -8.37315469	      5.73098707	      4.20407680	     42.84427236	    -18.20278434	     -8.59195747	     80.15896812	     44.93651525	      0.00000000	      0.00000000	     -5.36891463	     -5.95287396	      4.76650057	     24.31332172	     45.34621497	      0.00000000	      0.00000000
     48.81571429	     -5.19098423	     -4.40177819	      6.58877145	      0.97259385	      0.92857142	      0.47283970	      2.86690671	      5.89195383	    -18.81975532	      6.93476872	      6.93476872	     11.58682767	      2.19577673	     -5.56567990	     35.01729776	     -6.58239128	     -0.13632535	     22.07426974	     22.07426974	      9.87680038	     -9.39032053	     12.10290045	     -8.43664160	      5.83726336	      4.08248783	     44.07696070	    -18.16722436	     -8.63572899	     81.75625996	     44.89596864	      0.00000000	      0.00000000	     -6.29961825	     -6.05222614	      4.82637324	     24.13226353	     45.31776210	      0.00000000	      0.00000000
     48.82785714	     -5.15422951	     -4.57959977	      6.84894327	      0.97240931	      0.92783876	      0.47214093	      2.12814007	      6.15035684	    -19.24102299	      6.52644465	      6.52644465	     11.86484310	      2.89963745	     -5.54294198	     34.98039904	     -6.46567504	     -0.75882305	     19.93610935	     19.93610935	      9.47416254	     -7.81924424	     11.88931751	     -8.47547912	      6.05262647	      4.03041377	     45.12304445	    -18.25451430	     -8.70612301	     83.49301638	     44.85485188	      0.00000000	      0.00000000	     -7.17518356	     -6.13425463	      4.94154939	     24.10108501	     45.27987010	      0.00000000	      0.00000000
     48.84000000	     -5.18822267	     -4.75526683	      7.06078487	      0.97222748	      0.92705271	      0.47137940	      1.55064672	      6.37540559	    -19.49151628	      6.28102017	      6.28102017	     12.14724657	      3.32490829	     -5.50693329	     35.01943521	     -6.33141876	     -1.42860710	     18.21207453	     18.21207453	      8.99854802	     -6.72413919	     11.94870385	     -8.39401153	      6.27607140	      4.09446868	     46.08521066	    -18.39049714	     -8.79992445	     84.64380974	     44.83138642	      0.00000000	      0.00000000	     -7.86970630	     -6.18597455	      5.04874659	     24.02582781	     45.24774477	      0.00000000	      0.00000000
     48.85214286	     -5.18348743	     -4.92368079	      7.25575186	      0.97222743	      0.92632851	      0.47051540	      0.92358715	      6.58769848	    -19.74795018	      6.05470159	      6.05470159	     12.45243503	      3.81545069	     -5.40637189	     35.02823893	     -6.21170918	     -2.25212591	     16.97839303	     16.97839303	      8.50243969	     -5.93446003	     11.94857611	     -8.33354443	      6.47244028	      4.10633153	     46.89366220	    -18.44651594	     -8.86763139	     85.80928669	     44.80719191	      0.00000000	      0.00000000	     -8.54128795	     -6.24675080	      5.18647876	     23.98391295	     45.21061998	      0.00000000	      0.00000000
